<?xml version="1.0" encoding="iso-8859-1"?>
<!-- Uploaded to: SVG Repo, www.svgrepo.com, Generator: SVG Repo Mixer Tools -->
<svg height="800px" width="800px" version="1.1" id="Layer_1" xmlns="http://www.w3.org/2000/svg" xmlns:xlink="http://www.w3.org/1999/xlink" 
	 viewBox="0 0 512 512" xml:space="preserve">
<path style="fill:#FFD92D;" d="M268.933,9.618c-118.999,0-215.469,96.467-215.469,215.465c0,53.741,19.804,102.771,52.342,140.511
	c-15.795,8.05-25.974,25.051-24.329,43.793c2.166,24.649,23.901,42.875,48.55,40.711c19.611-1.722,34.968-15.897,39.41-34.007
	c29.78,15.545,63.574,24.46,99.496,24.46c118.994,0,215.464-96.467,215.464-215.466S387.928,9.618,268.933,9.618z"/>
<path style="fill:#FFA81E;" d="M268.933,9.618c-6.297,0-12.522,0.265-18.683,0.794c110.244,9.472,196.852,101.968,196.852,214.672
	c0,112.076-85.709,204.471-195.078,214.808c5.573,0.438,11.223,0.658,16.91,0.658c118.994,0,215.464-96.467,215.464-215.466
	C484.398,106.086,387.928,9.618,268.933,9.618z"/>
<path style="fill:#FFE571;" d="M123.99,409.387c-0.823-9.371,1.311-18.307,5.625-25.906c8.212-14.467,6.277-32.626-2.374-46.835
	c-19.806-32.531-31.265-70.685-31.265-111.563c0-111.822,85.222-203.751,194.239-214.431c-6.998-0.685-14.105-1.035-21.281-1.035
	c-118.999,0-215.469,96.467-215.469,215.465c0,53.741,19.804,102.771,52.342,140.511c-17.871,9.109-28.553,29.674-23.053,51.258
	c3.843,15.082,16.173,27.317,31.136,31.603c12.725,3.644,24.034,1.551,33.397-3.534C134.556,437.983,125.353,424.913,123.99,409.387
	z"/>
<circle style="fill:#FFD92D;" cx="53.058" cy="478.762" r="24.031"/>
<g>
	<path style="fill:#FF4F18;" d="M162.324,355.769c-6.101,0-11.296-3.84-13.233-9.783l-21.857-66.682
		c-2.393-7.334,0.769-16.195,7.351-20.624l14.926-10.038c5.269-3.551,11.073-5.432,16.777-5.432
		c11.181,0,20.419,6.994,24.106,18.253c1.157,3.523,1.714,7.3,1.665,11.201c7.359,2.992,13.093,9.224,15.856,17.679
		c5.677,17.37-2.277,39.316-18.108,49.96c0,0-18.697,12.589-18.753,12.624c-0.081,0.059-0.165,0.117-0.248,0.173
		C168.214,354.847,165.281,355.769,162.324,355.769z M172.391,314.518l2.942-1.982c2.875-2.037,4.175-6.156,3.442-8.547
		c-0.215,0.08-0.492,0.211-0.82,0.42l-7.272,4.897L172.391,314.518z"/>
	<path style="fill:#FF4F18;" d="M235.481,301.508c-3.242,0-6.476-0.521-9.618-1.546c-9.117-2.877-16.302-10.499-19.718-20.92
		c-3.015-9.204-2.76-19.414,0.755-30.349c0.026-0.08,0.052-0.158,0.079-0.237c3.816-10.851,10.31-19.61,18.778-25.329
		c5.92-3.978,12.388-6.076,18.723-6.076c3.481,0,6.846,0.626,10.005,1.863c9.33,3.303,16.018,10.42,19.351,20.596
		c3.205,9.774,2.893,20.68-0.874,30.739c-3.304,10.312-9.957,19.418-18.286,25.016C248.553,299.404,242.088,301.508,235.481,301.508
		z M234.956,257.291c-0.75,2.849-0.701,5.717,0.146,8.328c0.534,1.622,1.202,2.776,1.992,3.432c0.864-0.072,2.033-0.572,3.255-1.396
		c2.053-1.372,3.69-3.481,4.777-6.13c0.968-3.175,1.001-6.056,0.102-8.798c-0.287-0.882-0.869-2.302-1.811-2.94
		c-0.113-0.007-0.225-0.011-0.335-0.011c-1.049,0-2.033,0.317-3.008,0.969C238.097,252.08,236.282,254.398,234.956,257.291z"/>
	<path style="fill:#FF4F18;" d="M301.107,257.31c-3.26,0-6.512-0.524-9.664-1.559c-9.042-2.857-16.244-10.488-19.656-20.901
		c-2.976-9.087-2.715-19.583,0.756-30.355c0.026-0.077,0.052-0.153,0.077-0.231c3.819-10.861,10.314-19.621,18.782-25.332
		c5.934-3.977,12.404-6.072,18.732-6.072c3.481,0,6.843,0.627,9.999,1.864c9.327,3.303,16.014,10.42,19.346,20.593
		c3.2,9.758,2.897,20.658-0.85,30.722c-3.281,10.312-9.947,19.428-18.319,25.041C314.189,255.209,307.719,257.31,301.107,257.31z
		 M300.613,213.097c-0.764,2.839-0.721,5.709,0.131,8.328c0.666,2.029,1.422,2.972,1.983,3.433c0.862-0.069,2.035-0.569,3.263-1.397
		c2.049-1.381,3.696-3.496,4.777-6.132c0.969-3.173,1.001-6.054,0.102-8.796c-0.287-0.883-0.871-2.305-1.814-2.942
		c-0.12-0.007-0.238-0.012-0.357-0.012c-1.038,0-2.005,0.312-2.958,0.954C303.731,207.891,301.92,210.211,300.613,213.097z"/>
	<path style="fill:#FF4F18;" d="M360.257,220.731c-6.089,0-11.27-3.861-13.198-9.833l-0.732-2.211
		c-1.147-3.477-1.033-7.306,0.113-10.842c-2.882-1.688-5.126-4.445-6.267-7.921l-14.963-45.681c-2.401-7.32,0.759-16.186,7.35-20.62
		c2.57-1.729,5.469-2.641,8.388-2.641c6.071,0,11.257,3.856,13.212,9.823l14.963,45.677c1.158,3.533,1.074,7.345-0.047,10.852
		c2.84,1.695,5.054,4.432,6.189,7.872l0.751,2.334c2.448,7.342-0.573,15.995-7.214,20.489
		C366.169,219.802,363.22,220.731,360.257,220.731z"/>
	<path style="fill:#FF4F18;" d="M393.534,200.104c-6.045,0-11.227-3.827-13.2-9.75l-0.761-2.358
		c-1.133-3.441-1.012-7.251,0.133-10.781c-2.881-1.688-5.125-4.444-6.266-7.918l-14.965-45.683c-2.398-7.315,0.77-16.18,7.37-20.62
		c2.565-1.725,5.458-2.636,8.369-2.636c6.066,0,11.253,3.859,13.211,9.833l14.963,45.681c1.159,3.535,1.076,7.344-0.045,10.846
		c2.839,1.697,5.052,4.436,6.187,7.879l0.749,2.267c2.419,7.494-0.631,16.11-7.231,20.55
		C399.458,199.169,396.506,200.104,393.534,200.104z"/>
</g>
<g>
	<path style="fill:#1C2042;" d="M179.233,294.665c-2.031,0-4.218,0.668-6.35,2.056l-13.121,8.835l7.67,23.403l13.12-8.835
		c5.959-4.154,9.098-12.5,6.955-19.061C186.148,296.905,182.953,294.665,179.233,294.665z"/>
	<path style="fill:#1C2042;" d="M169.971,272.189c-1.057-3.218-3.502-4.969-6.347-4.969c-1.559,0-3.238,0.526-4.875,1.623
		l-9.023,6.072l5.941,18.083l9.023-6.072C169.275,283.825,171.607,277.151,169.971,272.189z"/>
	<path style="fill:#1C2042;" d="M246.027,240.872c-0.948-0.196-1.935-0.303-2.945-0.303c-2.652,0-5.459,0.738-8.128,2.522
		c-3.985,2.688-6.862,6.824-8.685,11.072c-1.391,4.681-1.429,9.681,0.075,14.305c1.598,4.869,4.267,7.914,7.708,9.436
		c0.92,0.244,1.865,0.367,2.832,0.367c2.751,0,5.668-0.991,8.616-2.98c3.684-2.462,6.561-6.203,8.309-10.677
		c1.579-4.925,1.767-9.888,0.169-14.757C252.474,245.233,249.654,242.15,246.027,240.872z"/>
	<path style="fill:#1C2042;" d="M311.668,196.679c-0.955-0.199-1.951-0.307-2.968-0.307c-2.645,0-5.443,0.733-8.104,2.525
		c-3.985,2.688-6.862,6.824-8.665,11.072c-1.41,4.681-1.448,9.681,0.057,14.305c1.598,4.869,4.267,7.914,7.726,9.436
		c0.914,0.244,1.857,0.367,2.82,0.367c2.742,0,5.659-0.991,8.609-2.98c3.685-2.482,6.561-6.203,8.309-10.677
		c1.579-4.925,1.767-9.887,0.169-14.756C318.116,201.039,315.296,197.957,311.668,196.679z"/>
	<path style="fill:#1C2042;" d="M482.979,215.465c-5.087,0-9.209,4.123-9.209,9.209c0,113.731-92.527,206.257-206.256,206.257
		c-33.432,0-65.472-7.877-95.235-23.413c-2.51-1.308-5.48-1.392-8.056-0.228c-2.579,1.165-4.477,3.452-5.15,6.199
		c-3.64,14.843-16.206,25.704-31.27,27.026c-19.561,1.729-36.853-12.792-38.57-32.343c-1.272-14.494,6.318-28.146,19.336-34.782
		c2.52-1.283,4.309-3.655,4.854-6.429c0.545-2.774-0.215-5.647-2.062-7.789c-32.312-37.477-50.109-85.244-50.109-134.498
		c0.001-113.729,92.529-206.256,206.262-206.256c62.271,0,120.575,27.716,159.962,76.043c3.211,3.94,9.013,4.533,12.957,1.32
		c3.943-3.213,4.533-9.014,1.32-12.957C398.854,30.188,335.345,0,267.514,0C143.625,0,42.835,100.789,42.835,224.674
		c0,50.176,16.945,98.929,47.912,138.42c-13.857,11.14-21.461,28.473-19.863,46.689c2.467,28.069,26.1,49.292,53.766,49.289
		c1.574,0,3.166-0.07,4.763-0.209c19.138-1.681,35.618-13.441,43.748-30.374c29.731,13.847,61.421,20.86,94.353,20.86
		c123.886,0,224.674-100.789,224.674-224.675C492.188,219.588,488.065,215.465,482.979,215.465z"/>
	<path style="fill:#1C2042;" d="M458.89,147.606c1.448,3.588,4.898,5.767,8.545,5.767c1.147,0,2.312-0.216,3.442-0.67
		c4.716-1.902,6.998-7.268,5.096-11.986c-2.07-5.131-4.353-10.237-6.785-15.178c-2.248-4.563-7.764-6.442-12.332-4.192
		c-4.563,2.247-6.439,7.768-4.192,12.331C454.897,138.211,456.993,142.897,458.89,147.606z"/>
	<path style="fill:#1C2042;" d="M50.147,445.644c-18.258,1.604-31.808,17.763-30.207,36.022C21.457,498.941,36.001,512,53.03,512
		c0.969,0,1.949-0.042,2.932-0.128c18.258-1.604,31.808-17.763,30.207-36.022C84.567,457.59,68.411,444.045,50.147,445.644z
		 M64.413,488.282c-2.543,3.033-6.116,4.894-10.06,5.241c-3.949,0.35-7.786-0.863-10.822-3.407
		c-3.033-2.543-4.894-6.116-5.241-10.06c-0.346-3.944,0.863-7.787,3.407-10.822c2.543-3.033,6.116-4.894,10.06-5.241
		c0.442-0.039,0.883-0.059,1.321-0.059c3.474,0,6.805,1.207,9.499,3.466c3.033,2.543,4.894,6.116,5.241,10.06
		C68.167,481.405,66.957,485.249,64.413,488.282z"/>
	<path style="fill:#1C2042;" d="M310.136,163.648c-8.159,0-16.402,2.634-23.836,7.617c-10.165,6.855-17.882,17.198-22.365,29.94
		c-0.054,0.153-0.106,0.308-0.156,0.463c-1.095,3.399-1.904,6.784-2.447,10.131c-1.176-0.556-2.381-1.071-3.626-1.518
		c-4.193-1.62-8.638-2.441-13.222-2.441l0,0c-8.172,0-16.416,2.639-23.842,7.63c-10.152,6.855-17.867,17.197-22.345,29.928
		c-0.055,0.157-0.108,0.316-0.16,0.474c-0.688,2.138-1.256,4.269-1.726,6.391c-6.087-11.267-17.307-18.263-30.118-18.263
		c-7.546,0-15.129,2.424-21.934,7.011l-14.454,9.716l-0.086,0.058c-0.119,0.08-0.237,0.16-0.355,0.242l-0.022,0.016
		c-10.032,6.751-14.644,19.832-10.966,31.104l21.87,66.72c3.137,9.626,11.975,16.111,21.981,16.111
		c4.794,0,9.504-1.464,13.622-4.234c0.101-0.068,0.2-0.136,0.3-0.206c0.017-0.011,0.034-0.022,0.05-0.033
		c0.023-0.016,0.048-0.032,0.071-0.048l18.591-12.52c9.175-6.168,16.475-15.662,20.542-26.727c1.714-4.662,2.781-9.434,3.22-14.164
		c1.4,0.65,2.844,1.213,4.328,1.685c4.052,1.318,8.234,1.986,12.433,1.986c8.475,0,16.675-2.635,24.368-7.83
		c10.075-6.772,17.818-17.283,21.816-29.617c1.257-3.398,2.173-6.88,2.768-10.391c1.37,0.635,2.781,1.19,4.234,1.653
		c4.051,1.32,8.236,1.989,12.441,1.989c8.48,0,16.681-2.631,24.375-7.821c10.12-6.783,17.882-17.311,21.856-29.659
		c0.311-0.844,0.596-1.693,0.864-2.547c3.543,2.207,7.685,3.448,12.053,3.448c4.801,0,9.529-1.472,13.668-4.257
		c6.173-4.177,10.253-10.741,11.61-17.795c2.499,0.918,5.189,1.426,8.001,1.426c4.818,0,9.554-1.482,13.697-4.285
		c9.891-6.653,14.466-19.671,10.835-30.927c-0.013-0.042-0.027-0.085-0.04-0.126l-0.751-2.274c-1.067-3.237-2.773-6.117-4.944-8.517
		c0.269-3.411-0.104-6.875-1.19-10.184l-14.961-45.672c-3.172-9.678-11.998-16.178-21.962-16.178h-0.002
		c-4.748,0-9.419,1.454-13.507,4.203c-6.224,4.186-10.357,10.797-11.735,17.899c-2.52-0.952-5.222-1.48-8.022-1.48h-0.001
		c-4.757,0-9.434,1.456-13.527,4.209c-10.049,6.76-14.66,19.853-10.963,31.134l6.126,18.702
		C318.623,164.384,314.443,163.648,310.136,163.648L310.136,163.648z M184.671,332.661l-18.591,12.52
		c-0.028,0.018-0.052,0.026-0.071,0.026c-0.058,0-0.08-0.064-0.08-0.064c-0.206,0.131-0.169,0.244-0.263,0.319
		c-1.106,0.744-2.261,1.098-3.342,1.098c-2.005,0-3.757-1.218-4.478-3.43l-21.862-66.694c-1.147-3.516,0.583-7.989,3.74-10.113
		c0.113-0.075,0.113-0.075,0.301-0.206c0,0,0,0,0.113-0.075l14.511-9.756c3.881-2.617,7.897-3.865,11.639-3.865
		c6.878,0,12.834,4.217,15.355,11.911c1.598,4.869,1.561,10.264,0.226,15.565c7.706,0.056,14.493,4.737,17.294,13.309
		C203.562,306.664,197.059,324.334,184.671,332.661z M264.26,267.226c-2.575,8.196-7.783,15.733-14.719,20.396
		c-4.779,3.227-9.526,4.676-14.061,4.676c-2.333,0-4.608-0.383-6.805-1.105c-6.128-1.917-11.185-7.106-13.778-15.02
		c-2.518-7.688-1.955-16.185,0.771-24.663c2.989-8.497,8.007-15.866,15.246-20.753c4.5-3.024,9.182-4.498,13.568-4.498
		c2.375,0,4.664,0.432,6.789,1.283c5.006,1.736,8.985,5.048,11.707,9.979c0.021,0.064,0.038,0.129,0.058,0.192
		c0.678,2.068,1.491,4.04,2.404,5.928C267.607,251.224,267.198,259.516,264.26,267.226z M399.785,177.48l0.751,2.274
		c1.127,3.496-0.47,7.895-3.628,10.02c-1.116,0.755-2.283,1.121-3.376,1.121c-1.978,0-3.712-1.2-4.463-3.452l-0.733-2.274
		c-1.109-3.364,0.62-7.97,3.74-10.095c1.081-0.727,2.195-1.068,3.237-1.068C397.319,174.005,399.056,175.267,399.785,177.48z
		 M370.987,110.636c1.079-0.726,2.191-1.068,3.228-1.068c1.999,0,3.73,1.266,4.46,3.493l14.963,45.678
		c1.147,3.496-0.47,7.876-3.628,10c-1.115,0.759-2.284,1.126-3.38,1.126c-1.971,0-3.702-1.191-4.44-3.438l-14.963-45.678
		C366.119,117.365,367.829,112.759,370.987,110.636z M366.52,198.089l0.733,2.274c1.165,3.496-0.47,7.914-3.609,10.038
		c-1.124,0.755-2.294,1.121-3.388,1.121c-1.981,0-3.706-1.2-4.433-3.452l-0.751-2.274c-1.109-3.364,0.602-7.97,3.76-10.095
		c1.072-0.731,2.186-1.074,3.228-1.074C364.052,194.627,365.792,195.88,366.52,198.089z M337.702,131.262
		c1.084-0.729,2.202-1.073,3.247-1.073c1.999,0,3.732,1.257,4.46,3.479l14.963,45.678c1.147,3.496-0.489,7.895-3.609,10.02
		c-1.127,0.759-2.304,1.126-3.403,1.126c-1.976,0-3.7-1.191-4.436-3.438l-14.963-45.678
		C332.853,137.992,334.545,133.387,337.702,131.262z M330.729,198.182c2.595,7.914,2.274,16.711-0.808,24.85
		c-2.556,8.196-7.783,15.733-14.737,20.396c-4.774,3.22-9.531,4.672-14.076,4.672c-2.328,0-4.6-0.381-6.789-1.1
		c-4.734-1.496-8.823-4.928-11.636-10.057c-0.032-0.102-0.06-0.204-0.092-0.306c-0.694-2.117-1.528-4.132-2.469-6.054
		c-2.022-7.317-1.372-15.317,1.19-23.268c2.989-8.497,8.027-15.884,15.246-20.753c4.513-3.024,9.198-4.498,13.582-4.498
		c2.374,0,4.657,0.432,6.777,1.283C323.417,185.607,328.209,190.494,330.729,198.182z"/>
</g>
<g>
	<path style="fill:#FFFFFF;" d="M87.263,237.018c-1.13-1.528-1.799-3.416-1.801-5.462c-0.029-32.36,7.555-54.447,18.956-77.653
		c2.243-4.565,7.76-6.448,12.327-4.206c4.565,2.245,6.448,7.76,4.204,12.327c-10.558,21.492-17.095,40.617-17.068,69.514
		c0.004,5.087-4.115,9.213-9.201,9.218C91.639,240.759,88.942,239.289,87.263,237.018z"/>
	<path style="fill:#FFFFFF;" d="M121.902,138.043c-2.38-3.217-2.458-7.741,0.097-11.076l0.598-0.783
		c0.518-0.68,0.518-0.68,1.067-1.335l0.631-0.755c3.258-3.906,9.064-4.433,12.97-1.175c3.91,3.255,4.433,9.066,1.175,12.972
		l-0.669,0.799c-0.268,0.318-0.268,0.318-0.519,0.65l-0.632,0.829c-3.093,4.037-8.874,4.804-12.911,1.71
		C123.007,139.341,122.405,138.721,121.902,138.043z"/>
</g>
</svg>